<?xml version="1.0" standalone="no"?>
<!DOCTYPE svg PUBLIC "-//W3C//DTD SVG 20010904//EN"
 "http://www.w3.org/TR/2001/REC-SVG-20010904/DTD/svg10.dtd">
<svg version="1.0" xmlns="http://www.w3.org/2000/svg"
 width="1024.000000pt" height="1024.000000pt" viewBox="0 0 1024.000000 1024.000000"
 preserveAspectRatio="xMidYMid meet">

<g transform="translate(0.000000,1024.000000) scale(0.100000,-0.100000)"
fill="#000000" stroke="none">
<path d="M4212 9244 c-73 -15 -117 -38 -144 -75 -18 -24 -20 -49 -23 -350 -3
-186 -10 -371 -18 -434 -15 -121 -16 -119 -37 55 -18 149 -56 340 -79 401 -29
75 -74 136 -116 156 -31 15 -38 15 -73 1 -67 -26 -292 -198 -402 -307 -244
-243 -394 -549 -430 -875 -6 -55 -15 -105 -21 -112 -6 -7 -33 -20 -61 -30
-135 -45 -175 -167 -83 -258 50 -50 135 -66 495 -88 283 -18 2406 -17 2670 1
216 14 259 28 297 96 56 100 2 203 -129 244 -20 7 -41 17 -46 24 -6 7 -19 64
-31 127 -61 345 -186 622 -379 846 -76 88 -249 238 -293 253 -55 19 -68 -23
-125 -406 -18 -128 -34 -247 -35 -265 -1 -29 -18 81 -74 482 -34 243 -63 346
-111 400 -77 86 -200 115 -504 123 -133 4 -203 1 -248 -9z"/>
<path d="M7315 7401 c-72 -18 -140 -66 -277 -197 -79 -75 -188 -173 -242 -218
-224 -184 -241 -206 -241 -332 0 -72 4 -87 35 -150 53 -105 187 -236 305 -296
179 -91 287 -113 501 -103 172 8 199 1 251 -58 52 -60 57 -110 45 -427 -13
-309 -28 -451 -78 -756 -34 -207 -34 -211 -19 -289 17 -89 50 -164 150 -340
125 -219 155 -285 127 -285 -12 0 -67 61 -164 180 -101 125 -250 270 -331 323
-139 92 -260 127 -467 134 -152 5 -258 -4 -452 -39 -66 -12 -68 -11 -95 13
-121 110 -357 226 -557 274 -99 24 -285 50 -293 41 -3 -2 13 -35 35 -73 237
-408 441 -1059 541 -1723 52 -347 71 -764 71 -1552 l0 -548 140 0 c77 0 140 3
140 8 0 4 7 77 15 162 43 463 76 1044 84 1480 6 340 8 382 21 355 8 -18 15
-77 18 -153 5 -144 -5 -133 142 -150 630 -74 1263 2 1698 204 289 134 476 306
542 499 18 52 20 85 20 314 0 141 -5 306 -10 366 -50 535 -235 1392 -412 1905
-175 506 -377 816 -760 1167 -258 236 -363 293 -483 264z"/>
<path d="M2945 7090 c-15 -44 -17 -81 -12 -253 4 -175 8 -215 30 -298 14 -53
37 -120 52 -149 55 -108 181 -210 261 -210 l31 0 6 -67 c4 -38 16 -104 28
-148 15 -59 19 -95 15 -140 -4 -33 -11 -145 -16 -250 -9 -194 -45 -524 -58
-537 -6 -5 -441 -179 -505 -202 -16 -5 -7 -15 45 -53 104 -77 298 -279 374
-388 204 -295 343 -694 413 -1190 23 -162 41 -384 41 -505 l0 -83 653 6 c632
7 1267 22 1395 33 l62 6 0 126 c0 228 -39 581 -96 862 -84 421 -213 799 -400
1171 -59 118 -78 149 -91 145 -184 -71 -535 -86 -763 -33 -208 49 -380 136
-496 251 -56 56 -138 165 -130 173 2 2 36 -12 75 -32 75 -38 280 -121 366
-148 158 -51 451 -79 610 -58 365 48 572 207 750 576 157 325 233 699 251
1238 l7 208 -79 -7 c-110 -10 -2200 -11 -2531 -1 l-271 8 -17 -51z"/>
<path d="M2337 4620 c-388 -157 -685 -383 -872 -665 -219 -330 -309 -704 -484
-2025 -76 -571 -100 -785 -91 -825 10 -44 34 -80 74 -109 27 -21 38 -21 701
-24 l673 -2 4 22 c167 773 310 1467 358 1732 22 121 42 221 43 223 6 6 37
-114 53 -209 13 -76 15 -137 11 -328 -8 -312 -45 -637 -137 -1193 -22 -131
-40 -240 -40 -243 0 -2 87 -4 193 -4 l193 0 37 163 c129 569 201 996 243 1447
19 202 14 519 -10 686 -43 291 -134 602 -235 803 -76 150 -212 320 -338 423
-81 67 -239 168 -262 168 -9 0 -60 -18 -114 -40z"/>
</g>
</svg>
